<?xml version="1.0" standalone="no"?>
<!DOCTYPE svg PUBLIC "-//W3C//DTD SVG 20010904//EN"
 "http://www.w3.org/TR/2001/REC-SVG-20010904/DTD/svg10.dtd">
<svg version="1.0" xmlns="http://www.w3.org/2000/svg"
 width="3951.000000pt" height="2841.000000pt" viewBox="0 0 3951.000000 2841.000000"
 preserveAspectRatio="xMidYMid meet">

<g transform="translate(0.000000,2841.000000) scale(0.100000,-0.100000)"
fill="#000000" stroke="none">
<path d="M19691 28385 c-1 -17 -694 -1597 -1591 -3625 -874 -1977 -1588 -3596
-1586 -3597 2 -2 396 75 876 172 480 97 874 174 876 172 3 -3 -1147 -7270
-1162 -7339 l-6 -28 921 0 921 0 0 -790 c0 -434 3 -790 8 -790 4 0 301 356
661 790 l655 790 1023 0 1023 0 -5 23 c-14 60 -1165 7340 -1161 7344 2 2 392
-52 866 -122 474 -69 867 -125 875 -123 8 2 -541 1238 -1576 3546 -1028 2292
-1589 3554 -1589 3575 0 22 -3 28 -9 18 -7 -11 -9 -11 -14 0 -3 8 -6 0 -6 -16z"/>
<path d="M11760 22746 c0 -39 598 -10941 606 -11043 l6 -83 384 0 384 0 0
1260 0 1260 1101 0 c1044 0 1101 1 1096 18 -3 9 -405 1045 -895 2302 -490
1257 -890 2286 -889 2287 1 0 394 101 872 222 479 122 878 225 888 229 14 6
-340 364 -1768 1792 -1554 1554 -1785 1781 -1785 1756z"/>
<path d="M26321 20986 l-1784 -1784 54 -16 c30 -8 407 -110 839 -226 432 -116
786 -212 787 -214 1 -1 -378 -1034 -842 -2295 -465 -1262 -845 -2297 -845
-2302 0 -5 180 -9 403 -9 l402 0 1080 -1432 c594 -787 1081 -1425 1083 -1417
4 24 612 11463 610 11471 -2 5 -806 -795 -1787 -1776z"/>
<path d="M22568 18873 c33 -302 171 -1356 178 -1362 10 -10 1835 -951 1844
-951 7 0 413 1100 408 1105 -10 8 -2418 1245 -2425 1245 -5 0 -7 -17 -5 -37z"/>
<path d="M15793 18326 c-568 -293 -1035 -535 -1039 -538 -4 -5 409 -1083 421
-1096 1 -1 337 170 746 380 l744 383 81 655 c45 360 85 676 88 703 4 26 3 47
-1 46 -4 0 -473 -240 -1040 -533z"/>
<path d="M22837 16703 c24 -191 45 -348 46 -349 1 -1 310 -160 686 -354 376
-193 687 -348 691 -343 16 17 200 537 193 543 -11 11 -1643 850 -1652 850 -4
0 12 -156 36 -347z"/>
<path d="M15960 16669 c-349 -180 -636 -332 -638 -337 -2 -7 193 -524 204
-540 3 -4 955 484 979 502 14 10 26 81 60 352 23 186 40 342 36 345 -3 3 -292
-142 -641 -322z"/>
<path d="M5673 13117 c-3120 -1607 -5673 -2924 -5673 -2927 0 -10 19735
-10185 19755 -10185 20 0 19755 10175 19755 10185 0 6 -10965 5653 -10987
5658 -8 2 -13 -6 -13 -20 -1 -13 -16 -297 -35 -633 -32 -583 -32 -611 -15
-625 9 -8 1924 -996 4254 -2195 2330 -1199 4236 -2182 4236 -2185 0 -3 -1518
-788 -3373 -1744 -1854 -957 -5721 -2952 -8592 -4434 -2871 -1482 -5224 -2695
-5230 -2695 -5 0 -2717 1397 -6025 3105 -3308 1707 -7175 3703 -8592 4434
-1418 731 -2578 1331 -2578 1334 0 3 1992 1030 4428 2284 2435 1253 4430 2281
4434 2285 4 3 -9 281 -28 616 -18 336 -34 622 -34 638 0 15 -3 27 -7 26 -5 0
-2561 -1315 -5680 -2922z"/>
<path d="M9870 10190 l0 -3280 750 0 750 0 0 1305 0 1305 1220 0 1220 0 2
-1302 3 -1303 750 0 750 0 0 3275 0 3275 -750 0 -750 0 -3 -1257 -2 -1258
-1220 0 -1220 0 0 1260 0 1260 -750 0 -750 0 0 -3280z"/>
<path d="M16770 10190 l0 -3280 750 0 750 0 0 1535 c0 844 3 1535 8 1535 4 0
556 -691 1227 -1534 l1220 -1535 904 0 c893 -1 903 -1 890 18 -8 11 -625 783
-1372 1715 l-1358 1694 1311 1558 c720 857 1310 1561 1310 1566 0 4 -413 8
-917 7 l-918 0 -1145 -1384 c-630 -762 -1148 -1385 -1152 -1385 -5 0 -8 623
-8 1385 l0 1385 -750 0 -750 0 0 -3280z"/>
<path d="M23520 10190 l0 -3280 750 0 750 0 2 2113 3 2113 1575 -2111 1576
-2110 732 -3 732 -2 0 3280 0 3280 -735 0 -735 0 -2 -2097 -3 -2097 -1580
2096 -1580 2097 -742 0 -743 1 0 -3280z"/>
<path d="M6277 11685 l-2898 -1493 103 -55 c160 -85 5681 -2925 5701 -2932 16
-7 17 11 15 321 l-3 328 -2247 1156 c-1236 636 -2256 1163 -2267 1171 -19 13
155 104 2247 1180 l2267 1167 3 326 c2 258 0 326 -10 325 -7 -1 -1317 -673
-2911 -1494z"/>
<path d="M30312 12854 l3 -326 2267 -1167 c1246 -641 2263 -1169 2259 -1174
-4 -4 -1024 -530 -2267 -1170 l-2259 -1163 -3 -327 c-1 -180 1 -327 4 -327 17
0 5804 2985 5802 2992 -3 9 -5787 2988 -5800 2988 -5 0 -7 -147 -6 -326z"/>
<path d="M21590 11439 c-509 -606 -924 -1107 -924 -1113 2 -17 1844 -2316
1855 -2316 5 0 9 992 9 2265 0 1246 -3 2265 -7 2265 -5 0 -424 -496 -933
-1101z"/>
<path d="M18940 7150 l0 -910 -945 0 c-752 0 -945 -3 -945 -13 0 -6 184 -651
410 -1431 225 -781 408 -1421 407 -1423 -2 -2 -1269 647 -2816 1442 l-2812
1445 -507 -1 c-279 -1 -549 -4 -601 -8 l-94 -6 1344 -694 c739 -382 1371 -710
1404 -729 90 -53 5938 -3094 5950 -3095 6 0 1752 906 3880 2013 2129 1107
4088 2125 4354 2264 293 152 476 252 463 254 -11 2 -260 16 -553 31 l-534 29
-2849 -1474 c-1567 -811 -2851 -1472 -2853 -1470 -3 2 183 643 411 1424 229
781 416 1425 416 1431 0 8 -292 11 -1032 11 l-1033 0 -724 910 c-398 501 -728
910 -733 910 -4 0 -8 -409 -8 -910z"/>
</g>
</svg>
